<mxfile host="app.diagrams.net" modified="2020-12-02T11:48:41.044Z" agent="5.0 (Windows)" etag="0ggNbT08f6w1rVsfQfaT" version="13.10.4" type="github">
  <diagram id="Yevh-g8nTKUBOGGr0oUq" name="Page-1">
    <mxGraphModel dx="782" dy="1904" grid="1" gridSize="10" guides="1" tooltips="1" connect="1" arrows="1" fold="1" page="1" pageScale="1" pageWidth="827" pageHeight="1169" math="0" shadow="0">
      <root>
        <mxCell id="gkHT4bu3b0f0jtjOqA4o-0" />
        <mxCell id="gkHT4bu3b0f0jtjOqA4o-1" parent="gkHT4bu3b0f0jtjOqA4o-0" />
        <mxCell id="VNxaeYcz-5pTjhsVP7Z5-10" style="edgeStyle=orthogonalEdgeStyle;rounded=0;orthogonalLoop=1;jettySize=auto;html=1;entryX=0.5;entryY=0;entryDx=0;entryDy=0;" parent="gkHT4bu3b0f0jtjOqA4o-1" source="crPVwcIPL3rN5ODeDzdk-15" target="ddazaEeR6ssN1BWX0ktI-7" edge="1">
          <mxGeometry relative="1" as="geometry">
            <mxPoint x="570.9300000000001" y="210" as="targetPoint" />
            <Array as="points">
              <mxPoint x="651" y="170" />
              <mxPoint x="651" y="170" />
            </Array>
          </mxGeometry>
        </mxCell>
        <mxCell id="crPVwcIPL3rN5ODeDzdk-15" value="Meteorological driving data" style="swimlane;" parent="gkHT4bu3b0f0jtjOqA4o-1" vertex="1">
          <mxGeometry x="299.11" y="10" width="567.26" height="140" as="geometry" />
        </mxCell>
        <mxCell id="crPVwcIPL3rN5ODeDzdk-16" value="&lt;div&gt;Daily precip&lt;/div&gt;&lt;div&gt;totals&lt;br&gt;&lt;/div&gt;" style="shape=parallelogram;html=1;strokeWidth=2;perimeter=parallelogramPerimeter;whiteSpace=wrap;rounded=1;arcSize=12;size=0.23;" parent="crPVwcIPL3rN5ODeDzdk-15" vertex="1">
          <mxGeometry x="100" y="49.21" width="100" height="60" as="geometry" />
        </mxCell>
        <mxCell id="crPVwcIPL3rN5ODeDzdk-17" value="&lt;div&gt;Daily temp&lt;/div&gt;&lt;div&gt;mean/min/&lt;/div&gt;&lt;div&gt;max&lt;br&gt;&lt;/div&gt;" style="shape=parallelogram;html=1;strokeWidth=2;perimeter=parallelogramPerimeter;whiteSpace=wrap;rounded=1;arcSize=12;size=0.23;" parent="crPVwcIPL3rN5ODeDzdk-15" vertex="1">
          <mxGeometry x="10" y="49.21" width="100" height="60" as="geometry" />
        </mxCell>
        <mxCell id="wCKSHiEcdpWvHQWmLOOp-2" value="&lt;div&gt;Daily sw&lt;/div&gt;&lt;div&gt;radiation&lt;br&gt;&lt;/div&gt;" style="shape=parallelogram;html=1;strokeWidth=2;perimeter=parallelogramPerimeter;whiteSpace=wrap;rounded=1;arcSize=12;size=0.23;" parent="crPVwcIPL3rN5ODeDzdk-15" vertex="1">
          <mxGeometry x="190" y="49.21000000000001" width="100" height="60" as="geometry" />
        </mxCell>
        <mxCell id="wCKSHiEcdpWvHQWmLOOp-3" value="&lt;div&gt;Daily rel.&lt;/div&gt;&lt;div&gt;humidity&lt;br&gt;&lt;/div&gt;" style="shape=parallelogram;html=1;strokeWidth=2;perimeter=parallelogramPerimeter;whiteSpace=wrap;rounded=1;arcSize=12;size=0.23;" parent="crPVwcIPL3rN5ODeDzdk-15" vertex="1">
          <mxGeometry x="280" y="49.21000000000001" width="100" height="60" as="geometry" />
        </mxCell>
        <mxCell id="wCKSHiEcdpWvHQWmLOOp-5" value="&lt;div&gt;Daily mean&lt;/div&gt;&lt;div&gt;wind speed&lt;br&gt;&lt;/div&gt;" style="shape=parallelogram;html=1;strokeWidth=2;perimeter=parallelogramPerimeter;whiteSpace=wrap;rounded=1;arcSize=12;size=0.23;" parent="crPVwcIPL3rN5ODeDzdk-15" vertex="1">
          <mxGeometry x="370" y="49.21000000000001" width="100" height="60" as="geometry" />
        </mxCell>
        <mxCell id="wCKSHiEcdpWvHQWmLOOp-6" value="&lt;div&gt;Yearly CO2&lt;/div&gt;&lt;div&gt;conc.&lt;br&gt;&lt;/div&gt;" style="shape=parallelogram;html=1;strokeWidth=2;perimeter=parallelogramPerimeter;whiteSpace=wrap;rounded=1;arcSize=12;size=0.23;" parent="crPVwcIPL3rN5ODeDzdk-15" vertex="1">
          <mxGeometry x="457.26" y="49.21000000000001" width="100" height="60" as="geometry" />
        </mxCell>
        <mxCell id="ddazaEeR6ssN1BWX0ktI-7" value="CROP NET growth models for new crops" style="rounded=1;whiteSpace=wrap;html=1;fontSize=12;glass=0;strokeWidth=1;shadow=0;" parent="gkHT4bu3b0f0jtjOqA4o-1" vertex="1">
          <mxGeometry x="590" y="210" width="121.57" height="70" as="geometry" />
        </mxCell>
        <mxCell id="wCKSHiEcdpWvHQWmLOOp-8" style="edgeStyle=orthogonalEdgeStyle;rounded=0;orthogonalLoop=1;jettySize=auto;html=1;exitX=0.5;exitY=1;exitDx=0;exitDy=0;entryX=0.5;entryY=0;entryDx=0;entryDy=0;" parent="gkHT4bu3b0f0jtjOqA4o-1" source="wCKSHiEcdpWvHQWmLOOp-0" target="crPVwcIPL3rN5ODeDzdk-15" edge="1">
          <mxGeometry relative="1" as="geometry" />
        </mxCell>
        <mxCell id="wCKSHiEcdpWvHQWmLOOp-0" value="&lt;div&gt;&lt;b&gt;UKCP18&lt;/b&gt;&lt;/div&gt;&lt;div&gt;12km projections 1981-2080, daily/monthly, 12variations&lt;br&gt;&lt;/div&gt;" style="shape=process;whiteSpace=wrap;html=1;backgroundOutline=1;shadow=0;fontFamily=Helvetica;fontSize=12;fontColor=#000000;align=center;strokeColor=#000000;strokeWidth=1;fillColor=#ffffff;rounded=1;" parent="gkHT4bu3b0f0jtjOqA4o-1" vertex="1">
          <mxGeometry x="505.47" y="-140" width="154.53" height="110" as="geometry" />
        </mxCell>
        <mxCell id="wCKSHiEcdpWvHQWmLOOp-9" value="&lt;div&gt;12month &lt;br&gt;&lt;/div&gt;&lt;div&gt;temp&lt;/div&gt;&lt;div&gt;suitability&lt;br&gt;&lt;/div&gt;" style="shape=parallelogram;html=1;strokeWidth=2;perimeter=parallelogramPerimeter;whiteSpace=wrap;rounded=1;arcSize=12;size=0.23;" parent="gkHT4bu3b0f0jtjOqA4o-1" vertex="1">
          <mxGeometry x="299.11" y="294" width="100" height="60" as="geometry" />
        </mxCell>
        <mxCell id="wCKSHiEcdpWvHQWmLOOp-10" value="&lt;div&gt;12month &lt;br&gt;&lt;/div&gt;&lt;div&gt;rainfall&lt;/div&gt;&lt;div&gt;suitability&lt;br&gt;&lt;/div&gt;" style="shape=parallelogram;html=1;strokeWidth=2;perimeter=parallelogramPerimeter;whiteSpace=wrap;rounded=1;arcSize=12;size=0.23;" parent="gkHT4bu3b0f0jtjOqA4o-1" vertex="1">
          <mxGeometry x="399.11" y="294" width="100" height="60" as="geometry" />
        </mxCell>
        <mxCell id="wCKSHiEcdpWvHQWmLOOp-15" style="edgeStyle=orthogonalEdgeStyle;rounded=0;orthogonalLoop=1;jettySize=auto;html=1;exitX=0.5;exitY=1;exitDx=0;exitDy=0;" parent="gkHT4bu3b0f0jtjOqA4o-1" source="crPVwcIPL3rN5ODeDzdk-17" edge="1">
          <mxGeometry relative="1" as="geometry">
            <mxPoint x="359" y="294" as="targetPoint" />
            <Array as="points">
              <mxPoint x="359" y="294" />
            </Array>
          </mxGeometry>
        </mxCell>
        <mxCell id="wCKSHiEcdpWvHQWmLOOp-32" style="edgeStyle=orthogonalEdgeStyle;rounded=0;orthogonalLoop=1;jettySize=auto;html=1;exitX=0.5;exitY=1;exitDx=0;exitDy=0;entryX=0.5;entryY=0;entryDx=0;entryDy=0;" parent="gkHT4bu3b0f0jtjOqA4o-1" source="lZxQcJOYDEL4WEOB50Lx-2" target="wCKSHiEcdpWvHQWmLOOp-23" edge="1">
          <mxGeometry relative="1" as="geometry" />
        </mxCell>
        <mxCell id="wCKSHiEcdpWvHQWmLOOp-17" value="&lt;div&gt;Limiting factors for current&lt;/div&gt;&lt;div&gt;&amp;amp; new crops (e.g. heat&lt;/div&gt;&lt;div&gt;stress, drought, flooding)&lt;/div&gt;&lt;div&gt;(12km)&lt;br&gt;&lt;/div&gt;" style="shape=parallelogram;html=1;strokeWidth=2;perimeter=parallelogramPerimeter;whiteSpace=wrap;rounded=1;arcSize=12;size=0.12;" parent="gkHT4bu3b0f0jtjOqA4o-1" vertex="1">
          <mxGeometry x="140" y="405" width="170" height="100" as="geometry" />
        </mxCell>
        <mxCell id="wCKSHiEcdpWvHQWmLOOp-18" value="&lt;div&gt;&amp;nbsp;FAO-Ecocrop&lt;/div&gt;&lt;div&gt;database&lt;br&gt;&lt;/div&gt;" style="shape=parallelogram;html=1;strokeWidth=2;perimeter=parallelogramPerimeter;whiteSpace=wrap;rounded=1;arcSize=12;size=0.23;" parent="gkHT4bu3b0f0jtjOqA4o-1" vertex="1">
          <mxGeometry x="180" y="294" width="119.11" height="60" as="geometry" />
        </mxCell>
        <mxCell id="wCKSHiEcdpWvHQWmLOOp-72" style="edgeStyle=orthogonalEdgeStyle;rounded=0;orthogonalLoop=1;jettySize=auto;html=1;exitX=1;exitY=0.5;exitDx=0;exitDy=0;entryX=0;entryY=0.5;entryDx=0;entryDy=0;" parent="gkHT4bu3b0f0jtjOqA4o-1" source="wCKSHiEcdpWvHQWmLOOp-23" target="ddazaEeR6ssN1BWX0ktI-7" edge="1">
          <mxGeometry relative="1" as="geometry" />
        </mxCell>
        <mxCell id="wCKSHiEcdpWvHQWmLOOp-23" value="&lt;div&gt;Future crop&lt;/div&gt;&lt;div&gt;rotations&lt;br&gt;&lt;/div&gt;" style="shape=parallelogram;html=1;strokeWidth=2;perimeter=parallelogramPerimeter;whiteSpace=wrap;rounded=1;arcSize=12;size=0.23;" parent="gkHT4bu3b0f0jtjOqA4o-1" vertex="1">
          <mxGeometry x="344.99999999999994" y="544" width="100" height="60" as="geometry" />
        </mxCell>
        <mxCell id="wCKSHiEcdpWvHQWmLOOp-24" value="" style="endArrow=none;html=1;entryX=0;entryY=0.5;entryDx=0;entryDy=0;" parent="gkHT4bu3b0f0jtjOqA4o-1" source="wCKSHiEcdpWvHQWmLOOp-18" target="wCKSHiEcdpWvHQWmLOOp-9" edge="1">
          <mxGeometry width="50" height="50" relative="1" as="geometry">
            <mxPoint x="280" y="374" as="sourcePoint" />
            <mxPoint x="310" y="324" as="targetPoint" />
          </mxGeometry>
        </mxCell>
        <mxCell id="wCKSHiEcdpWvHQWmLOOp-27" value="" style="endArrow=none;html=1;entryX=0;entryY=0.5;entryDx=0;entryDy=0;exitX=1;exitY=0.5;exitDx=0;exitDy=0;" parent="gkHT4bu3b0f0jtjOqA4o-1" source="wCKSHiEcdpWvHQWmLOOp-9" target="wCKSHiEcdpWvHQWmLOOp-10" edge="1">
          <mxGeometry width="50" height="50" relative="1" as="geometry">
            <mxPoint x="380" y="324" as="sourcePoint" />
            <mxPoint x="396.08765000000005" y="324" as="targetPoint" />
          </mxGeometry>
        </mxCell>
        <mxCell id="wCKSHiEcdpWvHQWmLOOp-31" style="edgeStyle=orthogonalEdgeStyle;rounded=0;orthogonalLoop=1;jettySize=auto;html=1;exitX=0.83;exitY=1;exitDx=0;exitDy=0;entryX=0.5;entryY=0;entryDx=0;entryDy=0;exitPerimeter=0;" parent="gkHT4bu3b0f0jtjOqA4o-1" source="wCKSHiEcdpWvHQWmLOOp-29" target="lZxQcJOYDEL4WEOB50Lx-2" edge="1">
          <mxGeometry relative="1" as="geometry">
            <Array as="points">
              <mxPoint x="395" y="374" />
            </Array>
          </mxGeometry>
        </mxCell>
        <mxCell id="lZxQcJOYDEL4WEOB50Lx-3" style="edgeStyle=orthogonalEdgeStyle;rounded=0;orthogonalLoop=1;jettySize=auto;html=1;exitX=0.25;exitY=1;exitDx=0;exitDy=0;entryX=0.818;entryY=-0.01;entryDx=0;entryDy=0;entryPerimeter=0;" parent="gkHT4bu3b0f0jtjOqA4o-1" source="wCKSHiEcdpWvHQWmLOOp-29" edge="1">
          <mxGeometry relative="1" as="geometry">
            <mxPoint x="279.05999999999995" y="403" as="targetPoint" />
          </mxGeometry>
        </mxCell>
        <mxCell id="wCKSHiEcdpWvHQWmLOOp-29" value="" style="shape=partialRectangle;whiteSpace=wrap;html=1;bottom=1;right=1;left=1;top=0;fillColor=none;routingCenterX=-0.5;" parent="gkHT4bu3b0f0jtjOqA4o-1" vertex="1">
          <mxGeometry x="230" y="354" width="200" height="20" as="geometry" />
        </mxCell>
        <mxCell id="wCKSHiEcdpWvHQWmLOOp-35" value="CROP NET growth models for grass, oil-seed rape, wheat" style="shape=process;whiteSpace=wrap;html=1;backgroundOutline=1;shadow=0;fontFamily=Helvetica;fontSize=12;fontColor=#000000;align=center;strokeColor=#000000;strokeWidth=1;fillColor=#ffffff;rounded=1;" parent="gkHT4bu3b0f0jtjOqA4o-1" vertex="1">
          <mxGeometry x="735.44" y="210" width="130.93" height="70" as="geometry" />
        </mxCell>
        <mxCell id="wCKSHiEcdpWvHQWmLOOp-38" style="edgeStyle=orthogonalEdgeStyle;rounded=0;orthogonalLoop=1;jettySize=auto;html=1;entryX=0.5;entryY=0;entryDx=0;entryDy=0;" parent="gkHT4bu3b0f0jtjOqA4o-1" target="wCKSHiEcdpWvHQWmLOOp-35" edge="1">
          <mxGeometry relative="1" as="geometry">
            <mxPoint x="750.0108620689657" y="240" as="targetPoint" />
            <mxPoint x="801" y="150" as="sourcePoint" />
            <Array as="points">
              <mxPoint x="801" y="180" />
              <mxPoint x="801" y="180" />
            </Array>
          </mxGeometry>
        </mxCell>
        <mxCell id="wCKSHiEcdpWvHQWmLOOp-44" value="" style="endArrow=none;html=1;exitX=1;exitY=0.5;exitDx=0;exitDy=0;entryX=0;entryY=0.5;entryDx=0;entryDy=0;" parent="gkHT4bu3b0f0jtjOqA4o-1" source="ddazaEeR6ssN1BWX0ktI-7" target="wCKSHiEcdpWvHQWmLOOp-35" edge="1">
          <mxGeometry width="50" height="50" relative="1" as="geometry">
            <mxPoint x="690" y="244.66" as="sourcePoint" />
            <mxPoint x="740" y="245" as="targetPoint" />
          </mxGeometry>
        </mxCell>
        <mxCell id="89iqilX4cf4417XdQgaj-3" style="edgeStyle=orthogonalEdgeStyle;rounded=0;orthogonalLoop=1;jettySize=auto;html=1;exitX=0.5;exitY=1;exitDx=0;exitDy=0;" parent="gkHT4bu3b0f0jtjOqA4o-1" source="wCKSHiEcdpWvHQWmLOOp-46" edge="1">
          <mxGeometry relative="1" as="geometry">
            <mxPoint x="730" y="359" as="targetPoint" />
          </mxGeometry>
        </mxCell>
        <mxCell id="wCKSHiEcdpWvHQWmLOOp-46" value="" style="shape=partialRectangle;whiteSpace=wrap;html=1;bottom=1;right=1;left=1;top=0;fillColor=none;routingCenterX=-0.5;" parent="gkHT4bu3b0f0jtjOqA4o-1" vertex="1">
          <mxGeometry x="650" y="280" width="160" height="40" as="geometry" />
        </mxCell>
        <mxCell id="wCKSHiEcdpWvHQWmLOOp-61" style="edgeStyle=orthogonalEdgeStyle;rounded=0;orthogonalLoop=1;jettySize=auto;html=1;entryX=0.5;entryY=0;entryDx=0;entryDy=0;" parent="gkHT4bu3b0f0jtjOqA4o-1" target="wCKSHiEcdpWvHQWmLOOp-59" edge="1">
          <mxGeometry relative="1" as="geometry">
            <mxPoint x="680" y="500" as="sourcePoint" />
          </mxGeometry>
        </mxCell>
        <mxCell id="wCKSHiEcdpWvHQWmLOOp-51" value="Modelled crop variables available for output (12km)" style="swimlane;" parent="gkHT4bu3b0f0jtjOqA4o-1" vertex="1">
          <mxGeometry x="536.37" y="360" width="543.63" height="140" as="geometry" />
        </mxCell>
        <mxCell id="wCKSHiEcdpWvHQWmLOOp-54" value="&lt;div&gt;Water&lt;/div&gt;&lt;div&gt;Unlimited&lt;/div&gt;&lt;div&gt;Yield&lt;br&gt;&lt;/div&gt;" style="shape=parallelogram;html=1;strokeWidth=2;perimeter=parallelogramPerimeter;whiteSpace=wrap;rounded=1;arcSize=12;size=0.23;" parent="wCKSHiEcdpWvHQWmLOOp-51" vertex="1">
          <mxGeometry x="10" y="49.21000000000001" width="100" height="60" as="geometry" />
        </mxCell>
        <mxCell id="wCKSHiEcdpWvHQWmLOOp-55" value="&lt;div&gt;Daily &lt;br&gt;&lt;/div&gt;&lt;div&gt;Intercepted&lt;/div&gt;&lt;div&gt;Radiation&lt;br&gt;&lt;/div&gt;" style="shape=parallelogram;html=1;strokeWidth=2;perimeter=parallelogramPerimeter;whiteSpace=wrap;rounded=1;arcSize=12;size=0.23;" parent="wCKSHiEcdpWvHQWmLOOp-51" vertex="1">
          <mxGeometry x="100" y="49.21000000000001" width="100" height="60" as="geometry" />
        </mxCell>
        <mxCell id="wCKSHiEcdpWvHQWmLOOp-56" value="&lt;div&gt;Daily Total&lt;/div&gt;&lt;div&gt;Crop &lt;br&gt;&lt;/div&gt;&lt;div&gt;Biomass&lt;br&gt;&lt;/div&gt;" style="shape=parallelogram;html=1;strokeWidth=2;perimeter=parallelogramPerimeter;whiteSpace=wrap;rounded=1;arcSize=12;size=0.23;" parent="wCKSHiEcdpWvHQWmLOOp-51" vertex="1">
          <mxGeometry x="190" y="49.21000000000001" width="100" height="60" as="geometry" />
        </mxCell>
        <mxCell id="wCKSHiEcdpWvHQWmLOOp-57" value="&lt;div&gt;Daily crop &lt;br&gt;&lt;/div&gt;&lt;div&gt;&amp;nbsp; water &lt;br&gt;&lt;/div&gt;demand" style="shape=parallelogram;html=1;strokeWidth=2;perimeter=parallelogramPerimeter;whiteSpace=wrap;rounded=1;arcSize=12;size=0.23;" parent="wCKSHiEcdpWvHQWmLOOp-51" vertex="1">
          <mxGeometry x="363.63" y="49.21" width="96.37" height="60.79" as="geometry" />
        </mxCell>
        <mxCell id="89iqilX4cf4417XdQgaj-1" value="&lt;div&gt;Daily &lt;br&gt;&lt;/div&gt;&lt;div&gt;irrigation&lt;/div&gt;&lt;div&gt;require-&lt;/div&gt;&lt;div&gt;ment&lt;/div&gt;" style="shape=parallelogram;html=1;strokeWidth=2;perimeter=parallelogramPerimeter;whiteSpace=wrap;rounded=1;arcSize=12;size=0.23;" parent="wCKSHiEcdpWvHQWmLOOp-51" vertex="1">
          <mxGeometry x="447.26" y="48.41999999999996" width="96.37" height="60.79" as="geometry" />
        </mxCell>
        <mxCell id="wCKSHiEcdpWvHQWmLOOp-59" value="&lt;div&gt;Potential&lt;/div&gt;&lt;div&gt;Yield&lt;/div&gt;&lt;div&gt;1980-2080&lt;br&gt;&lt;/div&gt;&lt;div&gt; (12km)&lt;/div&gt;" style="shape=parallelogram;html=1;strokeWidth=2;perimeter=parallelogramPerimeter;whiteSpace=wrap;rounded=1;arcSize=12;size=0.23;" parent="gkHT4bu3b0f0jtjOqA4o-1" vertex="1">
          <mxGeometry x="630" y="570" width="100" height="60" as="geometry" />
        </mxCell>
        <mxCell id="wCKSHiEcdpWvHQWmLOOp-60" value="&lt;div&gt;Actual Yield&lt;/div&gt;&lt;div&gt;1980-2080&lt;br&gt;&lt;/div&gt;&lt;div&gt;(10m or &lt;br&gt;&lt;/div&gt;&lt;div&gt;500m)&lt;br&gt;&lt;/div&gt;" style="shape=parallelogram;html=1;strokeWidth=2;perimeter=parallelogramPerimeter;whiteSpace=wrap;rounded=1;arcSize=12;size=0.23;" parent="gkHT4bu3b0f0jtjOqA4o-1" vertex="1">
          <mxGeometry x="729.9999999999999" y="570" width="100" height="60" as="geometry" />
        </mxCell>
        <mxCell id="wCKSHiEcdpWvHQWmLOOp-62" style="edgeStyle=orthogonalEdgeStyle;rounded=0;orthogonalLoop=1;jettySize=auto;html=1;entryX=0.5;entryY=0;entryDx=0;entryDy=0;" parent="gkHT4bu3b0f0jtjOqA4o-1" edge="1">
          <mxGeometry relative="1" as="geometry">
            <mxPoint x="790" y="500" as="sourcePoint" />
            <mxPoint x="790" y="570" as="targetPoint" />
          </mxGeometry>
        </mxCell>
        <mxCell id="wCKSHiEcdpWvHQWmLOOp-66" style="edgeStyle=orthogonalEdgeStyle;rounded=0;orthogonalLoop=1;jettySize=auto;html=1;" parent="gkHT4bu3b0f0jtjOqA4o-1" source="wCKSHiEcdpWvHQWmLOOp-63" target="wCKSHiEcdpWvHQWmLOOp-65" edge="1">
          <mxGeometry relative="1" as="geometry" />
        </mxCell>
        <mxCell id="wCKSHiEcdpWvHQWmLOOp-63" value="&lt;div&gt;&lt;b&gt;SHETRAN or UKCEH Grid-to-Grid&lt;br&gt;&lt;/b&gt;&lt;/div&gt;" style="shape=process;whiteSpace=wrap;html=1;backgroundOutline=1;shadow=0;fontFamily=Helvetica;fontSize=12;fontColor=#000000;align=center;strokeColor=#000000;strokeWidth=1;fillColor=#ffffff;rounded=1;" parent="gkHT4bu3b0f0jtjOqA4o-1" vertex="1">
          <mxGeometry x="872.73" y="-135" width="154.53" height="110" as="geometry" />
        </mxCell>
        <mxCell id="wCKSHiEcdpWvHQWmLOOp-64" value="&lt;div&gt;Sentinel 2 NDVI (10m)&lt;/div&gt;&lt;div&gt;or&lt;/div&gt;&lt;div&gt;MODIS LAI (500m)&lt;/div&gt;&lt;div&gt;satellite data&lt;br&gt;&lt;/div&gt;" style="shape=parallelogram;html=1;strokeWidth=2;perimeter=parallelogramPerimeter;whiteSpace=wrap;rounded=1;arcSize=12;size=0.10062386798148636;" parent="gkHT4bu3b0f0jtjOqA4o-1" vertex="1">
          <mxGeometry x="1060" y="-130" width="149.07" height="105" as="geometry" />
        </mxCell>
        <mxCell id="wCKSHiEcdpWvHQWmLOOp-65" value="&lt;div&gt;Soil &lt;br&gt;&lt;/div&gt;&lt;div&gt; Available &lt;br&gt;&lt;/div&gt;&lt;div&gt;Water &lt;br&gt;&lt;/div&gt;&lt;div&gt;&amp;nbsp;&amp;nbsp; Capacity&amp;nbsp;&amp;nbsp;&amp;nbsp;&amp;nbsp;&amp;nbsp; &lt;/div&gt;" style="shape=parallelogram;html=1;strokeWidth=2;perimeter=parallelogramPerimeter;whiteSpace=wrap;rounded=1;arcSize=12;size=0.23;" parent="gkHT4bu3b0f0jtjOqA4o-1" vertex="1">
          <mxGeometry x="900" y="60" width="100" height="60" as="geometry" />
        </mxCell>
        <mxCell id="wCKSHiEcdpWvHQWmLOOp-67" value="&lt;div&gt;Leaf Area&lt;/div&gt;&lt;div&gt;Index &lt;br&gt;&lt;/div&gt;&lt;div&gt;(~weekly)&lt;br&gt;&lt;/div&gt;" style="shape=parallelogram;html=1;strokeWidth=2;perimeter=parallelogramPerimeter;whiteSpace=wrap;rounded=1;arcSize=12;size=0.23;" parent="gkHT4bu3b0f0jtjOqA4o-1" vertex="1">
          <mxGeometry x="1070" y="60" width="100" height="60" as="geometry" />
        </mxCell>
        <mxCell id="wCKSHiEcdpWvHQWmLOOp-69" style="edgeStyle=orthogonalEdgeStyle;rounded=0;orthogonalLoop=1;jettySize=auto;html=1;" parent="gkHT4bu3b0f0jtjOqA4o-1" edge="1">
          <mxGeometry relative="1" as="geometry">
            <mxPoint x="1134.1855172413793" y="-25" as="sourcePoint" />
            <mxPoint x="1134.1855172413793" y="60.00000000000023" as="targetPoint" />
          </mxGeometry>
        </mxCell>
        <mxCell id="wCKSHiEcdpWvHQWmLOOp-71" style="edgeStyle=orthogonalEdgeStyle;rounded=0;orthogonalLoop=1;jettySize=auto;html=1;exitX=0.5;exitY=1;exitDx=0;exitDy=0;entryX=1;entryY=0.5;entryDx=0;entryDy=0;" parent="gkHT4bu3b0f0jtjOqA4o-1" source="wCKSHiEcdpWvHQWmLOOp-70" target="wCKSHiEcdpWvHQWmLOOp-35" edge="1">
          <mxGeometry relative="1" as="geometry" />
        </mxCell>
        <mxCell id="wCKSHiEcdpWvHQWmLOOp-70" value="" style="shape=partialRectangle;whiteSpace=wrap;html=1;bottom=1;right=1;left=1;top=0;fillColor=none;routingCenterX=-0.5;" parent="gkHT4bu3b0f0jtjOqA4o-1" vertex="1">
          <mxGeometry x="940" y="120" width="380" height="40" as="geometry" />
        </mxCell>
        <mxCell id="lZxQcJOYDEL4WEOB50Lx-2" value="&lt;div&gt;Crop relative suitability&lt;/div&gt;&lt;div&gt;index (e.g. unsuitable,&lt;/div&gt;&lt;div&gt;marginal, suitable)&lt;/div&gt;&lt;div&gt; across UK 1980-2080&lt;/div&gt;&lt;div&gt;(12km)&lt;br&gt;&lt;/div&gt;" style="shape=parallelogram;html=1;strokeWidth=2;perimeter=parallelogramPerimeter;whiteSpace=wrap;rounded=1;arcSize=12;size=0.12;" parent="gkHT4bu3b0f0jtjOqA4o-1" vertex="1">
          <mxGeometry x="310" y="404" width="170" height="100" as="geometry" />
        </mxCell>
        <mxCell id="89iqilX4cf4417XdQgaj-0" value="&lt;div&gt;Daily Green&lt;/div&gt;&lt;div&gt;Area Index&lt;br&gt;&lt;/div&gt;" style="shape=parallelogram;html=1;strokeWidth=2;perimeter=parallelogramPerimeter;whiteSpace=wrap;rounded=1;arcSize=12;size=0.23;" parent="gkHT4bu3b0f0jtjOqA4o-1" vertex="1">
          <mxGeometry x="813.63" y="409.21000000000004" width="100" height="60" as="geometry" />
        </mxCell>
        <mxCell id="89iqilX4cf4417XdQgaj-8" style="edgeStyle=orthogonalEdgeStyle;rounded=0;orthogonalLoop=1;jettySize=auto;html=1;exitX=0.5;exitY=1;exitDx=0;exitDy=0;" parent="gkHT4bu3b0f0jtjOqA4o-1" source="89iqilX4cf4417XdQgaj-4" target="89iqilX4cf4417XdQgaj-5" edge="1">
          <mxGeometry relative="1" as="geometry" />
        </mxCell>
        <mxCell id="89iqilX4cf4417XdQgaj-4" value="National Water Simulation Model" style="shape=process;whiteSpace=wrap;html=1;backgroundOutline=1;shadow=0;fontFamily=Helvetica;fontSize=12;fontColor=#000000;align=center;strokeColor=#000000;strokeWidth=1;fillColor=#ffffff;rounded=1;" parent="gkHT4bu3b0f0jtjOqA4o-1" vertex="1">
          <mxGeometry x="1250" y="-132.5" width="154.53" height="110" as="geometry" />
        </mxCell>
        <mxCell id="89iqilX4cf4417XdQgaj-5" value="&lt;div&gt;Availability of water &lt;br&gt;&lt;/div&gt;&lt;div&gt;for irrigation&lt;/div&gt;" style="shape=parallelogram;html=1;strokeWidth=2;perimeter=parallelogramPerimeter;whiteSpace=wrap;rounded=1;arcSize=12;size=0.23;" parent="gkHT4bu3b0f0jtjOqA4o-1" vertex="1">
          <mxGeometry x="1252.26" y="50" width="150" height="70" as="geometry" />
        </mxCell>
        <mxCell id="89iqilX4cf4417XdQgaj-10" value="" style="endArrow=none;html=1;" parent="gkHT4bu3b0f0jtjOqA4o-1" edge="1">
          <mxGeometry width="50" height="50" relative="1" as="geometry">
            <mxPoint x="1130" y="170" as="sourcePoint" />
            <mxPoint x="1130" y="120" as="targetPoint" />
          </mxGeometry>
        </mxCell>
        <mxCell id="lHneZ9Y3Ck1bjwIt0BKL-2" style="edgeStyle=orthogonalEdgeStyle;rounded=0;orthogonalLoop=1;jettySize=auto;html=1;exitX=0.607;exitY=0.988;exitDx=0;exitDy=0;exitPerimeter=0;" parent="gkHT4bu3b0f0jtjOqA4o-1" source="lHneZ9Y3Ck1bjwIt0BKL-0" edge="1">
          <mxGeometry relative="1" as="geometry">
            <mxPoint x="460" y="294" as="targetPoint" />
            <Array as="points">
              <mxPoint x="460" y="294" />
            </Array>
          </mxGeometry>
        </mxCell>
        <mxCell id="lHneZ9Y3Ck1bjwIt0BKL-0" value="&amp;nbsp;&amp;nbsp;&amp;nbsp; 7day/month/&lt;div&gt;annual prec&lt;/div&gt;&lt;div&gt;totals&lt;br&gt;&lt;/div&gt;" style="shape=parallelogram;html=1;strokeWidth=2;perimeter=parallelogramPerimeter;whiteSpace=wrap;rounded=1;arcSize=12;size=0.23;" parent="gkHT4bu3b0f0jtjOqA4o-1" vertex="1">
          <mxGeometry x="399.11" y="191" width="100" height="60" as="geometry" />
        </mxCell>
        <mxCell id="lHneZ9Y3Ck1bjwIt0BKL-1" style="edgeStyle=orthogonalEdgeStyle;rounded=0;orthogonalLoop=1;jettySize=auto;html=1;exitX=0.5;exitY=1;exitDx=0;exitDy=0;entryX=0.59;entryY=0.017;entryDx=0;entryDy=0;entryPerimeter=0;" parent="gkHT4bu3b0f0jtjOqA4o-1" source="crPVwcIPL3rN5ODeDzdk-16" target="lHneZ9Y3Ck1bjwIt0BKL-0" edge="1">
          <mxGeometry relative="1" as="geometry">
            <Array as="points">
              <mxPoint x="458" y="119" />
            </Array>
          </mxGeometry>
        </mxCell>
      </root>
    </mxGraphModel>
  </diagram>
</mxfile>
